<svg width="65" height="66" viewBox="0 0 65 66" fill="none" xmlns="http://www.w3.org/2000/svg">
<path d="M26.8506 3.14536C30.1404 1.2047 34.2248 1.2047 37.5146 3.14536L54.8912 13.3958C58.0902 15.283 60.0535 18.7205 60.0535 22.4347V43.3297C60.0535 47.0439 58.0902 50.4814 54.8912 52.3685L37.5146 62.619C34.2248 64.5597 30.1404 64.5597 26.8506 62.619L9.47395 52.3685C6.2749 50.4814 4.31165 47.0439 4.31165 43.3297L4.31165 22.4347C4.31165 18.7205 6.27491 15.283 9.47395 13.3958L26.8506 3.14536Z" fill="#343466"/>
<path fill-rule="evenodd" clip-rule="evenodd" d="M45.5279 38.1049C44.8413 38.1049 44.1546 38.0208 43.4851 37.8526C42.7126 37.6676 41.9744 37.3816 41.2877 36.9779C40.7384 36.6583 40.2234 36.2883 39.7427 35.8341L30.1636 26.4484C29.9576 26.2802 29.7172 26.1961 29.4426 26.1961C28.8417 26.1961 28.3439 26.6839 28.3439 27.2726V27.3903L28.0692 32.6215L34.8673 39.2823C35.0733 39.4842 35.348 39.6019 35.6398 39.6019C36.2578 39.6019 36.7385 39.1141 36.7385 38.5254V38.4077L36.8587 36.1201L38.1118 37.348L38.1977 37.4153C39.0732 38.2226 40.0689 38.8786 41.1332 39.3496C40.7212 41.9567 38.4037 43.9584 35.6226 43.9584C34.1291 43.9584 32.7386 43.3865 31.6914 42.3604L22.2325 33.0924C21.975 32.8401 21.666 32.6383 21.357 32.4869C20.8076 32.2009 20.1896 32.0664 19.5544 32.0664C17.4086 32.0664 15.6575 33.7821 15.6575 35.8846C15.6575 37.9871 17.4086 39.7028 19.5544 39.7028C21.2196 39.7028 22.6788 38.66 23.2281 37.1629L26.5414 40.4093C25.0307 42.6464 22.4385 44.0761 19.5544 44.0761C14.9365 44.0761 11.1942 40.3925 11.1942 35.8678C11.1942 31.3431 14.9537 27.6595 19.5544 27.6595C20.2583 27.6595 20.9449 27.7436 21.5973 27.9118C22.3698 28.0968 23.108 28.3996 23.7775 28.7864L23.8633 27.1885C23.8633 26.9194 23.8977 26.6671 23.932 26.4148C24.344 23.8076 26.6615 21.806 29.4254 21.806C30.8159 21.806 32.1549 22.3106 33.1678 23.2189L33.2536 23.2862L37.511 27.4576C37.7513 26.7007 38.0947 25.9942 38.5238 25.3551C40.0345 23.118 42.6267 21.6882 45.4936 21.6882C50.1115 21.6882 53.8711 25.3719 53.8711 29.8797C53.8711 34.3876 50.1458 38.1049 45.5279 38.1049ZM41.8542 28.618C42.4036 27.121 43.8627 26.0781 45.5279 26.0781C47.6738 26.0781 49.4248 27.8106 49.4248 29.9131C49.4248 32.0157 47.6738 33.7314 45.5279 33.7314C44.9099 33.7314 44.2919 33.5968 43.7426 33.3109C43.4164 33.1426 43.1246 32.9408 42.8499 32.6885L41.5967 31.4606L41.734 29.0048C41.7684 28.8703 41.8027 28.7525 41.8542 28.618Z" fill="white"/>
</svg>
